<svg xmlns="http://www.w3.org/2000/svg" version="1.1">
<circle cy="23.0940107676" r="1.10555555556" cx="40.0" fill="#FF82A0" />
<circle cy="115.470053838" r="1.21111111111" cx="40.0" fill="#FF82A0" />
<circle cy="161.658075373" r="1.31666666667" cx="40.0" fill="#FF82A0" />
<circle cy="254.034118443" r="1.42222222222" cx="40.0" fill="#FF82A0" />
<circle cy="300.222139979" r="1.52777777778" cx="40.0" fill="#FF82A0" />
<circle cy="46.1880215352" r="1.63333333333" cx="80.0" fill="#FF82A0" />
<circle cy="92.3760430703" r="1.73888888889" cx="80.0" fill="#FF82A0" />
<circle cy="184.752086141" r="1.84444444444" cx="80.0" fill="#FF82A0" />
<circle cy="230.940107676" r="1.95" cx="80.0" fill="#FF819F" />
<circle cy="323.316150746" r="2.05555555556" cx="80.0" fill="#FF819F" />
<circle cy="23.0940107676" r="2.16111111111" cx="120.0" fill="#FF819F" />
<circle cy="115.470053838" r="2.26666666667" cx="120.0" fill="#FF819F" />
<circle cy="161.658075373" r="2.37222222222" cx="120.0" fill="#FF819F" />
<circle cy="254.034118443" r="2.47777777778" cx="120.0" fill="#FF809F" />
<circle cy="300.222139979" r="2.58333333333" cx="120.0" fill="#FF809E" />
<circle cy="46.1880215352" r="2.68888888889" cx="160.0" fill="#FE809E" />
<circle cy="92.3760430703" r="2.79444444444" cx="160.0" fill="#FE809E" />
<circle cy="184.752086141" r="2.9" cx="160.0" fill="#FE7F9D" />
<circle cy="230.940107676" r="3.00555555556" cx="160.0" fill="#FE7F9D" />
<circle cy="323.316150746" r="3.11111111111" cx="160.0" fill="#FE7F9D" />
<circle cy="23.0940107676" r="3.21666666667" cx="200.0" fill="#FE7E9C" />
<circle cy="115.470053838" r="3.32222222222" cx="200.0" fill="#FE7E9C" />
<circle cy="161.658075373" r="3.42777777778" cx="200.0" fill="#FE7D9C" />
<circle cy="254.034118443" r="3.53333333333" cx="200.0" fill="#FE7D9B" />
<circle cy="300.222139979" r="3.63888888889" cx="200.0" fill="#FE7C9B" />
<circle cy="46.1880215352" r="3.74444444444" cx="240.0" fill="#FD7C9A" />
<circle cy="92.3760430703" r="3.85" cx="240.0" fill="#FD7B9A" />
<circle cy="184.752086141" r="3.95555555556" cx="240.0" fill="#FD7B9A" />
<circle cy="230.940107676" r="4.06111111111" cx="240.0" fill="#FD7A99" />
<circle cy="323.316150746" r="4.16666666667" cx="240.0" fill="#FD7A99" />
<circle cy="23.0940107676" r="4.27222222222" cx="280.0" fill="#FD7998" />
<circle cy="115.470053838" r="4.37777777778" cx="280.0" fill="#FD7997" />
<circle cy="161.658075373" r="4.48333333333" cx="280.0" fill="#FC7897" />
<circle cy="254.034118443" r="4.58888888889" cx="280.0" fill="#FC7796" />
<circle cy="300.222139979" r="4.69444444444" cx="280.0" fill="#FC7796" />
<circle cy="46.1880215352" r="4.8" cx="320.0" fill="#FC7695" />
<circle cy="92.3760430703" r="4.90555555556" cx="320.0" fill="#FC7694" />
<circle cy="184.752086141" r="5.01111111111" cx="320.0" fill="#FB7594" />
<circle cy="230.940107676" r="5.11666666667" cx="320.0" fill="#FB7493" />
<circle cy="323.316150746" r="5.22222222222" cx="320.0" fill="#FB7392" />
<circle cy="23.0940107676" r="5.32777777778" cx="360.0" fill="#FB7392" />
<circle cy="115.470053838" r="5.43333333333" cx="360.0" fill="#FB7291" />
<circle cy="161.658075373" r="5.53888888889" cx="360.0" fill="#FA7190" />
<circle cy="254.034118443" r="5.64444444444" cx="360.0" fill="#FA7090" />
<circle cy="300.222139979" r="5.75" cx="360.0" fill="#FA6F8F" />
<circle cy="46.1880215352" r="5.85555555556" cx="400.0" fill="#FA6F8E" />
<circle cy="92.3760430703" r="5.96111111111" cx="400.0" fill="#FA6E8D" />
<circle cy="184.752086141" r="6.06666666667" cx="400.0" fill="#F96D8D" />
<circle cy="230.940107676" r="6.17222222222" cx="400.0" fill="#F96C8C" />
<circle cy="323.316150746" r="6.27777777778" cx="400.0" fill="#F96B8B" />
<circle cy="23.0940107676" r="6.38333333333" cx="440.0" fill="#F96A8A" />
<circle cy="115.470053838" r="6.48888888889" cx="440.0" fill="#F86989" />
<circle cy="161.658075373" r="6.59444444444" cx="440.0" fill="#F86988" />
<circle cy="254.034118443" r="6.7" cx="440.0" fill="#F86888" />
<circle cy="300.222139979" r="6.80555555556" cx="440.0" fill="#F86787" />
<circle cy="46.1880215352" r="6.91111111111" cx="480.0" fill="#F76686" />
<circle cy="92.3760430703" r="7.01666666667" cx="480.0" fill="#F76585" />
<circle cy="184.752086141" r="7.12222222222" cx="480.0" fill="#F76484" />
<circle cy="230.940107676" r="7.22777777778" cx="480.0" fill="#F76383" />
<circle cy="323.316150746" r="7.33333333333" cx="480.0" fill="#F66282" />
<circle cy="23.0940107676" r="7.43888888889" cx="520.0" fill="#F66181" />
<circle cy="115.470053838" r="7.54444444444" cx="520.0" fill="#F66080" />
<circle cy="161.658075373" r="7.65" cx="520.0" fill="#F65F7F" />
<circle cy="254.034118443" r="7.75555555556" cx="520.0" fill="#F55E7E" />
<circle cy="300.222139979" r="7.86111111111" cx="520.0" fill="#F55D7E" />
<circle cy="46.1880215352" r="7.96666666667" cx="560.0" fill="#F55C7D" />
<circle cy="92.3760430703" r="8.07222222222" cx="560.0" fill="#F45B7C" />
<circle cy="184.752086141" r="8.17777777778" cx="560.0" fill="#F4597B" />
<circle cy="230.940107676" r="8.28333333333" cx="560.0" fill="#F4587A" />
<circle cy="323.316150746" r="8.38888888889" cx="560.0" fill="#F35779" />
<circle cy="23.0940107676" r="8.49444444444" cx="600.0" fill="#F35678" />
<circle cy="115.470053838" r="8.6" cx="600.0" fill="#F35577" />
<circle cy="161.658075373" r="8.70555555556" cx="600.0" fill="#F35475" />
<circle cy="254.034118443" r="8.81111111111" cx="600.0" fill="#F25374" />
<circle cy="300.222139979" r="8.91666666667" cx="600.0" fill="#F25273" />
<circle cy="46.1880215352" r="9.02222222222" cx="640.0" fill="#F25172" />
<circle cy="92.3760430703" r="9.12777777778" cx="640.0" fill="#F14F71" />
<circle cy="184.752086141" r="9.23333333333" cx="640.0" fill="#F14E70" />
<circle cy="230.940107676" r="9.33888888889" cx="640.0" fill="#F14D6F" />
<circle cy="323.316150746" r="9.44444444444" cx="640.0" fill="#F04C6E" />
<circle cy="23.0940107676" r="9.55" cx="680.0" fill="#F04B6D" />
<circle cy="115.470053838" r="9.65555555556" cx="680.0" fill="#F04A6C" />
<circle cy="161.658075373" r="9.76111111111" cx="680.0" fill="#F0496B" />
<circle cy="254.034118443" r="9.86666666667" cx="680.0" fill="#EF476A" />
<circle cy="300.222139979" r="9.97222222222" cx="680.0" fill="#EF4669" />
<circle cy="46.1880215352" r="10.0777777778" cx="720.0" fill="#EF4568" />
<circle cy="92.3760430703" r="10.1833333333" cx="720.0" fill="#EE4467" />
<circle cy="184.752086141" r="10.2888888889" cx="720.0" fill="#EE4366" />
<circle cy="230.940107676" r="10.3944444444" cx="720.0" fill="#EE4265" />
<circle cy="323.316150746" r="10.5" cx="720.0" fill="#ED4063" />
<circle cy="23.0940107676" r="10.6055555556" cx="760.0" fill="#ED3F62" />
<circle cy="115.470053838" r="10.7111111111" cx="760.0" fill="#ED3E61" />
<circle cy="161.658075373" r="10.8166666667" cx="760.0" fill="#EC3D60" />
<circle cy="254.034118443" r="10.9222222222" cx="760.0" fill="#EC3C5F" />
<circle cy="300.222139979" r="11.0277777778" cx="760.0" fill="#EC3B5E" />
<circle cy="46.1880215352" r="11.1333333333" cx="800.0" fill="#EB395D" />
<circle cy="92.3760430703" r="11.2388888889" cx="800.0" fill="#EB385C" />
<circle cy="184.752086141" r="11.3444444444" cx="800.0" fill="#EB375B" />
<circle cy="230.940107676" r="11.45" cx="800.0" fill="#EB365A" />
<circle cy="323.316150746" r="11.5555555556" cx="800.0" fill="#EA3559" />
<circle cy="23.0940107676" r="11.6611111111" cx="840.0" fill="#EA3458" />
<circle cy="115.470053838" r="11.7666666667" cx="840.0" fill="#EA3357" />
<circle cy="161.658075373" r="11.8722222222" cx="840.0" fill="#E93156" />
<circle cy="254.034118443" r="11.9777777778" cx="840.0" fill="#E93055" />
<circle cy="300.222139979" r="12.0833333333" cx="840.0" fill="#E92F54" />
<circle cy="46.1880215352" r="12.1888888889" cx="880.0" fill="#E82E53" />
<circle cy="92.3760430703" r="12.2944444444" cx="880.0" fill="#E82D52" />
<circle cy="184.752086141" r="12.4" cx="880.0" fill="#E82C51" />
<circle cy="230.940107676" r="12.5055555556" cx="880.0" fill="#E82B50" />
<circle cy="323.316150746" r="12.6111111111" cx="880.0" fill="#E72A4E" />
<circle cy="23.0940107676" r="12.7166666667" cx="920.0" fill="#E7294D" />
<circle cy="115.470053838" r="12.8222222222" cx="920.0" fill="#E7284D" />
<circle cy="161.658075373" r="12.9277777778" cx="920.0" fill="#E6264C" />
<circle cy="254.034118443" r="13.0333333333" cx="920.0" fill="#E6254B" />
<circle cy="300.222139979" r="13.1388888889" cx="920.0" fill="#E6244A" />
<circle cy="46.1880215352" r="13.2444444444" cx="960.0" fill="#E62349" />
<circle cy="92.3760430703" r="13.35" cx="960.0" fill="#E52248" />
<circle cy="184.752086141" r="13.4555555556" cx="960.0" fill="#E52147" />
<circle cy="230.940107676" r="13.5611111111" cx="960.0" fill="#E52046" />
<circle cy="323.316150746" r="13.6666666667" cx="960.0" fill="#E41F45" />
<circle cy="23.0940107676" r="13.7722222222" cx="1000.0" fill="#E41E44" />
<circle cy="115.470053838" r="13.8777777778" cx="1000.0" fill="#E41D43" />
<circle cy="161.658075373" r="13.9833333333" cx="1000.0" fill="#E41C42" />
<circle cy="254.034118443" r="14.0888888889" cx="1000.0" fill="#E31B41" />
<circle cy="300.222139979" r="14.1944444444" cx="1000.0" fill="#E31A40" />
<circle cy="46.1880215352" r="14.3" cx="1040.0" fill="#E31A40" />
<circle cy="92.3760430703" r="14.4055555556" cx="1040.0" fill="#E3193F" />
<circle cy="184.752086141" r="14.5111111111" cx="1040.0" fill="#E2183E" />
<circle cy="230.940107676" r="14.6166666667" cx="1040.0" fill="#E2173D" />
<circle cy="323.316150746" r="14.7222222222" cx="1040.0" fill="#E2163C" />
<circle cy="23.0940107676" r="14.8277777778" cx="1080.0" fill="#E2153B" />
<circle cy="115.470053838" r="14.9333333333" cx="1080.0" fill="#E1143B" />
<circle cy="161.658075373" r="15.0388888889" cx="1080.0" fill="#E1133A" />
<circle cy="254.034118443" r="15.1444444444" cx="1080.0" fill="#E11339" />
<circle cy="300.222139979" r="15.25" cx="1080.0" fill="#E11238" />
<circle cy="46.1880215352" r="15.3555555556" cx="1120.0" fill="#E11138" />
<circle cy="92.3760430703" r="15.4611111111" cx="1120.0" fill="#E01037" />
<circle cy="184.752086141" r="15.5666666667" cx="1120.0" fill="#E00F36" />
<circle cy="230.940107676" r="15.6722222222" cx="1120.0" fill="#E00F36" />
<circle cy="323.316150746" r="15.7777777778" cx="1120.0" fill="#E00E35" />
<circle cy="23.0940107676" r="15.8833333333" cx="1160.0" fill="#E00D34" />
<circle cy="115.470053838" r="15.9888888889" cx="1160.0" fill="#DF0D34" />
<circle cy="161.658075373" r="16.0944444444" cx="1160.0" fill="#DF0C33" />
<circle cy="254.034118443" r="16.2" cx="1160.0" fill="#DF0B32" />
<circle cy="300.222139979" r="16.3055555556" cx="1160.0" fill="#DF0B32" />
<circle cy="46.1880215352" r="16.4111111111" cx="1200.0" fill="#DF0A31" />
<circle cy="92.3760430703" r="16.5166666667" cx="1200.0" fill="#DF0931" />
<circle cy="184.752086141" r="16.6222222222" cx="1200.0" fill="#DE0930" />
<circle cy="230.940107676" r="16.7277777778" cx="1200.0" fill="#DE0830" />
<circle cy="323.316150746" r="16.8333333333" cx="1200.0" fill="#DE082F" />
<circle cy="23.0940107676" r="16.9388888889" cx="1240.0" fill="#DE072F" />
<circle cy="115.470053838" r="17.0444444444" cx="1240.0" fill="#DE072E" />
<circle cy="161.658075373" r="17.15" cx="1240.0" fill="#DE062E" />
<circle cy="254.034118443" r="17.2555555556" cx="1240.0" fill="#DD062D" />
<circle cy="300.222139979" r="17.3611111111" cx="1240.0" fill="#DD052D" />
<circle cy="46.1880215352" r="17.4666666667" cx="1280.0" fill="#DD052C" />
<circle cy="92.3760430703" r="17.5722222222" cx="1280.0" fill="#DD042C" />
<circle cy="184.752086141" r="17.6777777778" cx="1280.0" fill="#DD042C" />
<circle cy="230.940107676" r="17.7833333333" cx="1280.0" fill="#DD032B" />
<circle cy="323.316150746" r="17.8888888889" cx="1280.0" fill="#DD032B" />
<circle cy="23.0940107676" r="17.9944444444" cx="1320.0" fill="#DD032B" />
<circle cy="115.470053838" r="18.1" cx="1320.0" fill="#DD022A" />
<circle cy="161.658075373" r="18.2055555556" cx="1320.0" fill="#DD022A" />
<circle cy="254.034118443" r="18.3111111111" cx="1320.0" fill="#DC022A" />
<circle cy="300.222139979" r="18.4166666667" cx="1320.0" fill="#DC0229" />
<circle cy="46.1880215352" r="18.5222222222" cx="1360.0" fill="#DC0129" />
<circle cy="92.3760430703" r="18.6277777778" cx="1360.0" fill="#DC0129" />
<circle cy="184.752086141" r="18.7333333333" cx="1360.0" fill="#DC0129" />
<circle cy="230.940107676" r="18.8388888889" cx="1360.0" fill="#DC0129" />
<circle cy="323.316150746" r="18.9444444444" cx="1360.0" fill="#DC0129" />
<circle cy="23.0940107676" r="19.05" cx="1400.0" fill="#DC0028" />
<circle cy="115.470053838" r="19.1555555556" cx="1400.0" fill="#DC0028" />
<circle cy="161.658075373" r="19.2611111111" cx="1400.0" fill="#DC0028" />
<circle cy="254.034118443" r="19.3666666667" cx="1400.0" fill="#DC0028" />
<circle cy="300.222139979" r="19.4722222222" cx="1400.0" fill="#DC0028" />
<circle cy="46.1880215352" r="19.5777777778" cx="1440.0" fill="#DC0028" />
<circle cy="92.3760430703" r="19.6833333333" cx="1440.0" fill="#DC0028" />
<circle cy="184.752086141" r="19.7888888889" cx="1440.0" fill="#DC0028" />
<circle cy="230.940107676" r="19.8944444444" cx="1440.0" fill="#DC0028" />
<circle cy="323.316150746" r="20.0" cx="1440.0" fill="#DC0028" />
</svg>
